HIERARCHY
ROOT hip
{
	OFFSET 0.000000 0.000000 0.000000 
	CHANNELS 6 Xposition Yposition Zposition Xrotation Zrotation Yrotation
	JOINT abdomen
	{
		OFFSET 0.000000 3.402643 0.000000 
		CHANNELS 3 Xrotation Zrotation Yrotation
		JOINT chest
		{
			OFFSET 0.000000 8.438565 -0.680529 
			CHANNELS 3 Xrotation Zrotation Yrotation
			JOINT neck
			{
				OFFSET 0.000000 10.207942 -0.272212 
				CHANNELS 3 Xrotation Zrotation Yrotation
				JOINT head
				{
					OFFSET 0.000000 3.130431 0.000000 
					CHANNELS 3 Xrotation Zrotation Yrotation
					End Site
					{
						OFFSET 0.000000 3.130435 0.000000 
					}
				}
			}
			JOINT lCollar
			{
				OFFSET 3.470700 6.669187 -0.816635 
				CHANNELS 3 Yrotation Zrotation Xrotation
				JOINT lShldr
				{
					OFFSET 3.198488 0.000000 0.000000 
					CHANNELS 3 Zrotation Yrotation Xrotation
					JOINT lForeArm
					{
						OFFSET 10.139888 0.000000 0.000000 
						CHANNELS 3 Yrotation Zrotation Xrotation
						JOINT lHand
						{
							OFFSET 8.370511 0.000000 0.000000 
							CHANNELS 3 Zrotation Yrotation Xrotation
							End Site
							{
								OFFSET 4.083176 0.000000 0.000000 
							}
						}
					}
				}
			}
			JOINT rCollar
			{
				OFFSET -3.470700 6.669187 -0.816635 
				CHANNELS 3 Yrotation Zrotation Xrotation
				JOINT rShldr
				{
					OFFSET -3.198488 0.000000 0.000000 
					CHANNELS 3 Zrotation Yrotation Xrotation
					JOINT rForeArm
					{
						OFFSET -10.139888 0.000000 0.000000 
						CHANNELS 3 Yrotation Zrotation Xrotation
						JOINT rHand
						{
							OFFSET -8.370511 0.000000 0.000000 
							CHANNELS 3 Zrotation Yrotation Xrotation
							End Site
							{
								OFFSET -4.083176 0.000000 0.000000 
							}
						}
					}
				}
			}
		}
	}
	JOINT lThigh
	{
		OFFSET 5.308129 -1.633274 1.361059 
		CHANNELS 3 Xrotation Zrotation Yrotation
		JOINT lShin
		{
			OFFSET -2.041588 -20.007561 0.000000 
			CHANNELS 3 Xrotation Zrotation Yrotation
			JOINT lFoot
			{
				OFFSET 0.000000 -19.190928 -1.224953 
				CHANNELS 3 Xrotation Yrotation Zrotation
				End Site
				{
					OFFSET 0.000000 -2.449906 4.627600 
				}
			}
		}
	}
	JOINT rThigh
	{
		OFFSET -5.308129 -1.633274 1.361059 
		CHANNELS 3 Xrotation Zrotation Yrotation
		JOINT rShin
		{
			OFFSET 2.041588 -20.007561 0.000000 
			CHANNELS 3 Xrotation Zrotation Yrotation
			JOINT rFoot
			{
				OFFSET 0.000000 -19.190928 -1.224953 
				CHANNELS 3 Xrotation Yrotation Zrotation
				End Site
				{
					OFFSET 0.000000 -2.449906 4.627600 
				}
			}
		}
	}
}
MOTION
Frames: 11
Frame Time: 0.016667
-7.868063 47.746845 143.744965 -6.077647 -4.801236 -7.615055 22.449617 -0.584528 3.974801 -23.505243 2.328032 4.095554 0.063055 17.994358 16.679277 0.217947 -11.431817 20.311447 -2.313872 3.408597 -0.010321 -82.322586 16.932180 1.285715 -16.013052 0.903549 9.090640 -14.786656 17.778522 -4.617051 11.191406 1.875000 -0.000320 72.786270 -6.173161 -7.783196 36.145256 -2.526341 28.777691 20.040314 -6.560152 -2.397604 -20.437668 6.142056 -6.516675 39.265079 -0.705352 -3.035611 -4.471016 1.274772 -12.030182 10.561783 7.175186 4.978148 17.250185 1.586105 1.738132 -23.488274 0.882391 12.757633 
-7.876365 47.648212 144.652191 -5.942555 -4.734082 -8.398415 22.685062 -0.253116 4.521526 -23.440741 1.567392 4.513499 -0.753857 17.273592 16.045113 0.668277 -11.377084 19.648447 -2.304122 3.320705 -0.010307 -82.615295 17.450764 -1.825923 -14.966269 0.980887 9.893792 -14.935390 18.071014 -4.738363 11.162109 1.806641 -0.000308 72.433090 -4.587080 -7.144667 37.158741 -2.489598 28.247644 19.932661 -6.573813 -2.388637 -20.940733 5.809314 -7.653991 34.295395 -0.943573 -2.786439 -5.329672 2.035985 -11.940760 11.190915 6.904100 5.542439 18.095816 1.549653 1.777693 -24.211386 0.850105 12.777746 
-7.906151 47.499817 145.584641 -5.749504 -4.700383 -8.780361 22.854046 0.029191 4.863286 -23.438381 1.167873 4.737332 -1.586012 16.423531 15.420308 1.169561 -11.349088 18.968164 -2.362742 3.164465 -0.010282 -83.000580 17.776447 -5.226897 -13.829421 1.104704 11.448320 -15.193541 18.306780 -4.882689 11.113579 1.775462 -0.009880 72.063599 -3.297516 -7.074653 38.038902 -2.436120 27.633759 19.635920 -6.291214 -2.249590 -21.067993 5.887716 -7.182752 29.615417 -1.153557 -2.528911 -6.713018 1.742423 -11.941231 11.766881 6.718503 5.699018 19.036005 1.530300 1.863067 -24.801516 0.965803 12.862970 
-7.935966 47.351379 146.517151 -5.566639 -4.666536 -9.161507 23.025461 0.301491 5.195395 -23.428530 0.778323 4.961408 -2.418167 15.577143 14.794975 1.681340 -11.319587 18.276299 -2.411595 3.017989 -0.010258 -83.396111 18.071487 -8.630735 -12.690649 1.246175 13.004045 -15.439238 18.545118 -5.016955 11.064747 1.755938 -0.009879 71.695267 -2.012252 -7.009827 38.908451 -2.398653 27.015425 19.339996 -6.007397 -2.114538 -21.187698 5.956211 -6.710515 24.942080 -1.338679 -2.224122 -8.118765 1.444575 -11.951788 12.351547 6.542182 5.886222 19.977476 1.500969 1.917487 -25.406771 1.106360 12.956202 
-7.986230 47.174980 147.497101 -5.392011 -4.599049 -9.160718 23.109728 0.466744 5.302956 -23.376949 0.690710 5.010224 -3.223858 14.649417 14.161191 2.109047 -11.261795 17.555658 -2.538608 2.666448 -0.010200 -83.649063 18.104353 -9.703883 -11.440083 1.241276 12.926765 -15.240773 18.711138 -5.002637 10.937799 1.785256 -0.009888 71.354073 -1.172975 -7.284900 39.909344 -2.325018 26.171991 18.988926 -5.807516 -2.004996 -21.166237 5.760456 -6.569060 21.230358 -1.461935 -2.034847 -8.966949 1.461544 -11.935008 13.009974 6.364523 5.659104 20.869169 1.477323 1.970129 -25.731508 1.477949 13.141038 
-8.036516 46.998581 148.477188 -5.225587 -4.541202 -9.159940 23.193802 0.622206 5.420344 -23.324656 0.612838 5.058930 -4.025306 13.724758 13.538568 2.541587 -11.210828 16.833012 -2.655854 2.324671 -0.010143 -83.902641 18.128889 -10.777407 -10.191318 1.241312 12.842457 -15.028597 18.880655 -4.972004 10.810853 1.824340 -0.009898 71.018211 -0.332664 -7.561152 40.908333 -2.256568 25.332891 18.648157 -5.606219 -1.898902 -21.128033 5.555695 -6.456050 17.542974 -1.591859 -1.773816 -9.841798 1.447148 -11.912142 13.668625 6.190469 5.468819 21.770407 1.451494 2.022412 -26.059530 1.806670 13.335032 
-8.101871 46.825195 149.529984 -5.175354 -4.400382 -8.845355 23.203953 0.631979 5.371520 -23.189817 0.710178 5.000463 -4.714796 12.815582 12.876574 2.832406 -11.103863 16.058695 -2.743826 1.846171 -0.010064 -83.859344 17.966711 -11.637038 -9.150273 1.240052 12.870069 -14.769789 18.996914 -4.913329 10.791316 1.795047 -0.009894 71.051147 -0.213211 -8.355362 42.063416 -2.166065 24.339535 18.271582 -5.497844 -1.822976 -21.139599 5.038472 -6.535746 16.070156 -1.621007 -1.690042 -9.950650 1.377191 -11.948630 14.539437 5.937165 4.944856 22.592224 1.422180 2.098874 -25.909889 2.388571 13.619082 
-8.167230 46.651867 150.582901 -5.124272 -4.259292 -8.520326 23.213976 0.641763 5.312932 -23.064943 0.807534 4.942016 -5.401975 11.900229 12.219997 3.107305 -11.003223 15.286199 -2.831562 1.377918 -0.019737 -83.817871 17.806278 -12.493879 -8.099487 1.241310 12.894040 -14.510682 19.113018 -4.850558 10.781549 1.775517 -0.009891 71.087044 -0.083976 -9.152493 43.216541 -2.092660 23.339699 17.905012 -5.388420 -1.748525 -21.139936 4.521073 -6.625553 14.605215 -1.650245 -1.606224 -10.089826 1.296795 -11.969442 15.393156 5.691348 4.436165 23.424595 1.392673 2.146305 -25.761049 2.984022 13.920685 
-8.237065 46.519466 151.720917 -5.241436 -3.964707 -8.037427 23.156408 0.457134 5.146710 -22.926670 0.953585 4.864069 -5.861981 11.056760 11.545798 3.242922 -10.778620 14.468000 -2.870933 0.947755 -0.009914 -83.613121 17.683178 -13.117049 -7.703246 1.282969 13.361949 -14.429965 19.293102 -4.857386 10.976857 1.755953 -0.009882 71.461693 -0.776412 -10.375516 44.322025 -1.988479 22.245998 17.717043 -5.338236 -1.713332 -21.181097 3.739445 -6.796372 15.381417 -1.637417 -1.665491 -8.949793 0.954683 -12.020848 16.394209 5.272902 3.717835 24.228233 1.353279 2.180256 -24.560402 3.823570 14.204673 
-8.306887 46.387173 152.859024 -5.352291 -3.678815 -7.554766 23.100807 0.282130 4.990317 -22.779215 1.099684 4.776384 -6.322925 10.198311 10.877826 3.380672 -10.559931 13.642162 -2.910066 0.527840 -0.009843 -83.400513 17.566139 -13.731477 -7.305679 1.322841 13.820571 -14.351646 19.461365 -4.870372 11.172168 1.746155 -0.009874 71.861366 -1.459866 -11.604954 45.428211 -1.908186 21.139034 17.538919 -5.287595 -1.678482 -21.243528 2.948899 -6.964997 16.158417 -1.621148 -1.694713 -7.803357 0.624702 -12.070001 17.399105 4.872710 2.986093 25.031067 1.309692 2.232522 -23.376272 4.675507 14.465569 
-8.368671 46.332397 154.066589 -5.555308 -3.179078 -7.032829 22.950041 -0.107049 4.775383 -22.686825 1.167906 4.717805 -6.449916 9.402353 10.207676 3.405899 -10.176283 12.792055 -2.851552 0.059080 -0.009764 -82.824600 17.336803 -14.073277 -7.237376 1.359653 14.240633 -14.291306 19.559385 -4.882480 11.513947 1.648441 -0.009846 72.719078 -2.754065 -13.115013 46.045471 -1.777236 19.717304 17.433834 -5.383904 -1.698622 -20.964176 1.982083 -7.090737 17.699404 -1.591851 -1.791802 -6.327180 0.108398 -12.149322 18.280561 4.208651 2.142878 26.097496 1.288472 2.273111 -20.781357 5.792152 14.601398 
